# xmcd
# Track frame offsets:
# 150
# 12704
# 25258
# 44086
# 55784
# 70617
# 83740
# 96579
# 107989
# 123110
# 139085
# 153636
#
# Disc length: 2208 seconds
# Revision: 0
# Processed by: cddbd v1.5.2PL0 Copyright (c) Steve Scherf et al.
# Submitted via: VisiTrax 2.11.1.266 - For more info visit www.synapsa.com
#
DISCID=a6089e0c
DTITLE=alan garrity - The world of alan garrity
DYEAR=1900
DGENRE=
TTITLE0=I need someone
TTITLE1=home is'nt home anymore
TTITLE2=put your hand in the hand
TTITLE3=feelings
TTITLE4=she's my woman
TTITLE5=loving arms
TTITLE6=rhinestone cowboy
TTITLE7=the first time ever i saw your face
TTITLE8=look what you've done
TTITLE9=let me try again
TTITLE10=i'll have to dream(alone at night)
TTITLE11=can't help falling in love
EXTD=
EXTT0=
EXTT1=
EXTT2=
EXTT3=
EXTT4=
EXTT5=
EXTT6=
EXTT7=
EXTT8=
EXTT9=
EXTT10=
EXTT11=
PLAYORDER=
